<?xml version="1.0" standalone="no"?>
<!DOCTYPE svg PUBLIC "-//W3C//DTD SVG 20010904//EN"
 "http://www.w3.org/TR/2001/REC-SVG-20010904/DTD/svg10.dtd">
<svg version="1.0" xmlns="http://www.w3.org/2000/svg"
 width="300.000000pt" height="300.000000pt" viewBox="0 0 300.000000 300.000000"
 preserveAspectRatio="xMidYMid meet">
<metadata>
Created by potrace 1.14, written by Peter Selinger 2001-2017
</metadata>
<g transform="translate(0.000000,300.000000) scale(0.100000,-0.100000)"
fill="#000000" stroke="none">
<path d="M1070 2913 c-32 -27 -71 -97 -75 -136 -1 -12 -3 -25 -4 -29 0 -4 -43
-27 -93 -52 -284 -137 -505 -353 -648 -631 -118 -232 -168 -490 -147 -760 8
-101 47 -289 74 -354 13 -31 13 -36 -1 -47 -15 -10 -14 -12 6 -17 17 -5 31
-24 51 -70 41 -94 155 -262 238 -351 170 -182 384 -319 604 -386 39 -12 84
-25 101 -31 17 -5 167 -9 333 -9 314 0 307 -1 456 46 333 105 640 372 808 702
40 78 45 83 87 97 41 12 42 14 14 14 -17 1 -33 4 -36 7 -3 3 5 40 18 82 100
322 86 668 -41 984 -60 149 -211 367 -333 480 -118 108 -258 202 -395 263 -37
16 -67 34 -67 40 0 34 -35 120 -59 147 -28 32 -29 32 -56 14 -15 -10 -41 -33
-58 -52 -45 -52 -52 -54 -168 -39 -136 19 -210 18 -348 -1 l-113 -15 -28 26
c-15 15 -36 42 -46 60 -24 46 -38 49 -74 18z m38 -49 c2 -10 30 -38 61 -60 99
-71 130 -171 72 -233 -16 -17 -36 -31 -44 -31 -20 0 -41 26 -27 35 13 8 13 52
0 60 -5 3 -10 14 -10 23 0 10 -9 23 -20 30 -11 7 -20 23 -20 35 0 24 -54 85
-62 70 -3 -4 -3 -55 -1 -113 3 -58 5 -121 6 -140 1 -19 -7 -50 -16 -69 -10
-19 -14 -44 -11 -57 5 -19 2 -24 -14 -24 -27 0 -30 13 -21 100 8 90 0 116 -26
77 -25 -39 -32 -148 -11 -166 22 -19 20 -36 -6 -53 -20 -13 -21 -17 -9 -32 12
-15 11 -19 -8 -32 -21 -15 -21 -17 -4 -29 10 -7 16 -15 13 -18 -175 -150 -240
-222 -305 -337 -72 -128 -121 -290 -127 -425 l-3 -70 40 0 40 0 6 90 c9 117
31 198 87 314 45 94 132 214 189 262 17 15 31 34 30 44 -1 10 3 20 9 22 13 4
13 -55 0 -76 -5 -8 -4 -16 3 -21 14 -8 5 -60 -10 -60 -5 0 -9 -4 -9 -10 0 -5
7 -10 15 -10 8 0 15 -9 15 -19 0 -11 8 -21 18 -23 14 -3 13 -7 -10 -29 -33
-31 -35 -39 -8 -39 22 0 26 -20 8 -38 -9 -9 -9 -15 -1 -23 6 -6 9 -18 6 -25
-3 -8 5 -18 21 -24 23 -8 25 -13 16 -29 -14 -28 -13 -31 14 -31 33 0 39 -12
21 -46 -18 -35 -13 -40 19 -19 22 15 27 15 31 3 3 -8 1 -27 -4 -41 -8 -21 -8
-27 4 -27 7 0 17 5 20 10 13 22 32 10 27 -17 -5 -28 -7 -27 46 -6 8 3 12 -4
12 -21 0 -26 13 -35 25 -16 12 20 35 10 35 -14 0 -34 16 -41 34 -14 16 22 16
22 16 -17 l0 -39 28 27 c36 35 42 34 42 -6 0 -47 12 -54 26 -15 12 38 30 39
27 2 -2 -27 6 -30 26 -11 10 10 15 9 25 -5 14 -20 36 -24 36 -8 0 6 5 10 10
10 6 0 10 -7 10 -15 0 -23 27 -18 45 8 l16 22 20 -24 c19 -23 19 -23 19 -2 0
26 15 27 29 4 10 -16 11 -16 17 5 7 23 28 30 39 12 11 -18 27 -11 22 10 -6 22
3 26 20 9 8 -8 13 -5 18 10 3 12 17 24 31 27 17 4 24 13 24 31 0 22 3 24 25
19 20 -5 25 -3 25 13 0 13 8 21 23 23 12 2 22 8 22 15 0 6 3 15 8 19 4 4 7 16
7 27 0 14 5 18 20 14 17 -4 20 0 20 24 0 32 2 34 32 18 19 -10 20 -9 16 15 -4
21 -3 24 8 15 11 -9 15 -7 21 7 3 11 13 23 20 27 11 7 12 12 2 23 -9 11 -8 18
4 32 10 11 13 22 8 28 -14 16 -22 62 -11 69 6 4 8 15 5 25 -4 12 1 22 12 28
17 10 17 11 -1 31 -11 12 -16 21 -13 21 3 0 0 14 -7 32 -13 29 -12 33 17 63
30 31 44 89 25 101 -5 3 -4 12 4 21 10 12 9 17 -5 24 -20 12 -22 38 -4 63 13
18 15 17 38 -7 228 -235 236 -245 327 -408 48 -86 98 -273 111 -414 l6 -70
140 -2 c77 -1 143 -2 148 -3 25 -1 -16 -262 -64 -407 l-31 -93 -163 0 -164 0
-42 -62 c-106 -158 -229 -265 -428 -373 -51 -27 -169 -71 -221 -82 -324 -66
-674 11 -901 199 -26 21 -52 38 -58 38 -6 0 -11 3 -11 8 0 4 -22 30 -48 58
-66 71 -86 96 -128 159 l-37 55 -157 0 -156 0 -22 63 c-38 108 -61 208 -72
321 -6 59 -9 110 -7 113 3 2 67 5 143 6 l139 2 6 100 c7 116 12 142 46 248 64
200 198 388 366 513 31 23 53 45 47 49 -17 10 -11 33 10 40 23 7 27 25 6 25
-24 0 -27 15 -12 63 12 39 12 47 -1 60 -14 13 -13 16 6 22 23 7 31 55 9 55
-43 0 -233 -137 -335 -242 -94 -97 -114 -121 -176 -220 -47 -76 -62 -106 -117
-233 -31 -71 -60 -193 -71 -298 -12 -120 -21 -147 -49 -147 -23 0 -23 1 -10
130 47 443 296 815 703 1048 104 59 127 64 127 27 0 -14 3 -25 8 -25 4 0 7 30
7 68 0 84 7 108 45 161 32 44 52 49 58 15z m859 -31 c27 -63 34 -119 23 -168
-7 -31 -6 -43 7 -57 17 -19 10 -38 -13 -38 -9 0 -12 -5 -8 -11 3 -6 10 -42 14
-81 4 -38 10 -72 13 -74 3 -3 14 -1 25 5 16 9 19 19 15 63 -2 29 -6 60 -10 68
-11 25 -11 54 -1 68 8 9 6 12 -6 12 -11 0 -16 9 -16 30 0 36 5 37 75 5 147
-68 263 -151 396 -285 201 -203 330 -463 373 -753 20 -130 20 -177 3 -177 -31
0 -45 26 -51 98 -21 243 -122 494 -283 704 -9 13 -58 64 -108 113 -89 88 -210
177 -310 228 l-51 25 4 -36 c2 -21 11 -42 19 -49 13 -10 14 -15 3 -28 -10 -12
-9 -22 4 -55 20 -50 20 -74 1 -90 -11 -9 -21 -6 -50 15 -19 15 -35 24 -35 21
0 -4 -11 1 -25 10 -14 9 -25 25 -25 35 0 11 -6 19 -14 19 -7 0 -19 6 -25 14
-10 11 -6 27 18 73 22 44 31 80 36 140 5 51 4 83 -3 87 -14 8 -72 -60 -78 -93
-3 -16 -17 -40 -31 -55 -14 -15 -22 -34 -19 -42 8 -21 -42 -18 -81 6 -39 23
-41 46 -13 107 24 53 103 139 135 147 14 3 29 15 35 26 17 32 36 23 57 -27z
m-247 -69 c8 -8 -1 -21 -29 -47 -47 -42 -89 -57 -102 -36 -7 11 -12 12 -27 2
-13 -7 -32 -9 -55 -3 -20 4 -38 5 -41 3 -3 -3 -25 -7 -50 -9 -38 -2 -52 3 -91
32 -62 48 -61 52 25 68 50 9 359 1 370 -10z m-172 -244 c6 0 12 -11 12 -25 0
-14 5 -25 10 -25 16 0 32 -50 21 -64 -5 -6 -11 -22 -13 -36 -3 -24 -6 -25 -73
-25 -67 0 -70 1 -73 25 -2 14 -8 30 -13 36 -10 12 -3 40 15 63 6 7 11 21 11
29 0 18 40 33 70 26 11 -2 26 -4 33 -4z m-150 -320 c21 -36 32 -65 30 -84 -3
-26 -10 -32 -60 -50 l-56 -20 3 -61 c1 -33 7 -71 13 -85 5 -14 11 -34 14 -45
2 -15 11 -20 36 -20 18 0 36 -6 41 -14 7 -11 13 -10 34 3 34 23 94 23 140 2
26 -13 41 -15 50 -8 6 5 23 12 37 14 23 3 26 9 35 75 6 40 16 78 23 85 19 19
15 48 -8 48 -12 0 -38 9 -60 20 -22 11 -46 20 -55 20 -21 0 -19 48 4 103 24
55 32 60 95 63 50 3 92 -12 116 -41 11 -13 10 -18 -5 -29 -13 -9 -15 -15 -6
-20 8 -5 2 -19 -20 -44 -30 -34 -31 -36 -13 -49 11 -8 18 -21 16 -29 -2 -8 4
-14 13 -14 16 0 20 -15 6 -25 -5 -3 -21 -26 -35 -51 -22 -40 -26 -59 -26 -131
0 -99 -14 -139 -67 -192 -44 -42 -119 -70 -149 -53 -13 7 -25 7 -37 0 -11 -6
-39 -7 -66 -3 -37 5 -44 4 -34 -6 16 -16 138 -27 181 -16 51 13 61 3 22 -21
-24 -15 -51 -22 -88 -22 -79 0 -123 27 -179 110 -50 76 -61 118 -62 232 -1 63
-3 69 -30 89 -17 12 -27 28 -24 35 3 8 0 21 -6 28 -10 11 -8 17 6 24 10 6 15
14 11 18 -5 4 -3 13 4 21 9 11 4 21 -23 50 -22 23 -30 37 -21 40 15 6 16 30 0
35 -20 7 0 37 37 55 29 14 40 15 55 5 27 -16 40 -15 40 4 0 32 36 8 68 -46z
m-468 -20 c0 -5 -7 -10 -15 -10 -8 0 -15 5 -15 10 0 6 7 10 15 10 8 0 15 -4
15 -10z m-560 -1386 c173 -296 430 -506 745 -608 206 -67 459 -79 670 -32 85
20 178 47 190 55 6 4 31 15 57 25 94 35 247 135 367 241 51 45 171 193 211
260 44 74 74 105 100 105 27 0 25 -14 -7 -69 -101 -174 -246 -338 -392 -444
-469 -338 -1070 -350 -1561 -29 -90 58 -282 242 -337 322 -52 75 -121 196
-128 223 -6 24 -5 25 21 18 21 -5 38 -24 64 -67z"/>
<path d="M2122 2118 l-13 -41 44 -46 c135 -142 214 -316 238 -529 l12 -102 44
0 44 0 -6 68 c-16 180 -83 376 -170 498 -47 66 -162 194 -174 194 -3 0 -12
-19 -19 -42z"/>
<path d="M1133 1341 c-48 -30 -64 -62 -70 -143 -10 -133 27 -206 108 -215 96
-11 140 41 147 174 4 70 1 88 -18 127 -24 52 -40 63 -96 71 -29 4 -47 1 -71
-14z m92 -65 c21 -32 24 -160 6 -205 -12 -28 -18 -32 -45 -29 -26 3 -33 9 -44
43 -19 55 -11 169 13 195 24 27 51 25 70 -4z"/>
<path d="M606 1341 c-4 -6 2 -19 12 -29 13 -13 28 -63 46 -153 15 -74 30 -144
33 -157 4 -19 11 -23 36 -20 30 3 32 6 53 88 13 47 23 97 23 113 1 15 5 27 11
27 11 0 13 -8 38 -135 18 -89 18 -90 49 -93 36 -4 29 -21 78 193 15 66 34 124
41 128 8 4 14 17 14 27 0 17 -7 20 -40 20 -33 0 -40 -4 -44 -22 -20 -96 -36
-177 -39 -198 -4 -28 -9 -13 -44 135 -18 77 -19 80 -48 80 -29 0 -29 -1 -54
-112 -23 -105 -40 -143 -41 -90 -1 12 -9 63 -18 112 l-18 90 -41 3 c-23 2 -44
-2 -47 -7z"/>
<path d="M1364 1336 c-7 -19 3 -36 22 -36 11 0 14 -23 14 -129 0 -120 -1 -129
-20 -134 -12 -3 -20 -14 -20 -26 0 -20 5 -21 119 -21 l118 0 7 42 c5 29 3 44
-6 50 -23 14 -38 9 -48 -17 -8 -20 -16 -25 -45 -25 l-35 0 0 129 c0 119 1 129
19 134 12 3 19 12 17 23 -2 16 -13 19 -70 22 -52 2 -68 0 -72 -12z"/>
<path d="M1590 1325 c0 -14 6 -25 13 -25 9 0 22 -31 36 -82 12 -46 31 -118 43
-161 l20 -78 41 3 c39 3 40 4 54 53 80 292 69 267 111 263 l37 -3 3 -117 c2
-107 1 -119 -18 -138 -43 -43 -29 -50 95 -50 l115 0 0 50 c0 46 -2 50 -24 50
-17 0 -26 -7 -30 -26 -6 -21 -11 -25 -39 -22 -31 3 -32 4 -32 53 l0 50 53 3
c48 3 52 5 52 28 0 21 -4 24 -39 24 -61 0 -71 7 -71 50 0 39 11 50 50 50 12 0
20 -8 22 -22 2 -17 10 -23 28 -23 23 0 25 4 25 45 l0 45 -158 3 c-184 3 -160
21 -203 -155 -25 -104 -44 -143 -44 -92 0 12 -9 63 -20 113 -12 50 -23 101
-26 114 -4 19 -11 22 -49 22 -41 0 -45 -2 -45 -25z"/>
<path d="M2230 1333 c-36 -24 -40 -33 -40 -84 0 -51 17 -73 86 -107 53 -27 68
-46 60 -77 -6 -22 -12 -25 -51 -25 -43 0 -45 1 -45 30 0 25 -4 30 -25 30 -23
0 -25 -3 -25 -50 l0 -49 42 -12 c88 -23 161 9 174 77 10 54 -18 96 -89 135
-66 37 -78 56 -51 83 24 25 67 17 74 -14 4 -18 12 -25 30 -25 22 0 25 5 28 41
3 35 0 42 -23 52 -38 18 -116 15 -145 -5z"/>
<path d="M431 1228 c-8 -21 -17 -28 -38 -28 l-28 -1 23 -18 c19 -17 21 -23 12
-46 l-11 -28 26 17 c25 16 28 16 52 1 26 -17 26 -17 19 10 -5 19 -2 33 10 46
16 18 16 19 -4 19 -13 0 -27 11 -36 28 l-14 27 -11 -27z"/>
<path d="M2567 1244 c-4 -4 -7 -16 -7 -26 0 -14 -8 -18 -32 -18 l-31 0 22 -24
c19 -20 21 -28 12 -45 -13 -24 -3 -27 24 -7 17 12 23 12 44 -2 24 -16 24 -16
17 11 -5 22 -2 32 16 47 l23 19 -27 1 c-19 0 -31 8 -41 25 -7 14 -16 23 -20
19z"/>
<path d="M660 902 c0 -14 78 -114 133 -171 135 -139 290 -227 487 -277 111
-28 345 -26 456 4 229 62 407 179 547 360 31 41 57 78 57 83 0 5 -22 9 -48 9
-47 0 -49 -1 -103 -67 -106 -130 -257 -232 -430 -289 -78 -26 -95 -28 -254
-29 -132 0 -184 4 -233 18 -89 24 -195 72 -273 123 -72 46 -197 165 -226 214
-15 27 -23 30 -65 30 -26 0 -48 -4 -48 -8z"/>
<path d="M1295 2180 c7 -22 -5 -26 -23 -8 -6 6 -15 8 -19 4 -16 -16 53 -63
102 -69 54 -8 59 -6 51 20 -11 36 -56 73 -87 73 -26 0 -29 -3 -24 -20z m75
-35 c0 -8 -7 -15 -15 -15 -16 0 -20 12 -8 23 11 12 23 8 23 -8z"/>
<path d="M1651 2166 c-34 -54 -29 -64 27 -59 34 4 55 13 77 34 29 28 29 29 10
44 -11 8 -37 15 -57 15 -31 0 -40 -5 -57 -34z m99 -1 c0 -8 -4 -15 -9 -15 -13
0 -22 16 -14 24 11 11 23 6 23 -9z m-70 -25 c0 -5 -4 -10 -10 -10 -5 0 -10 5
-10 10 0 6 5 10 10 10 6 0 10 -4 10 -10z"/>
<path d="M1488 1813 c-31 -5 -88 -65 -88 -92 0 -48 93 -110 146 -97 15 4 43
23 62 42 28 28 33 39 27 62 -3 15 -14 35 -23 46 -17 19 -74 47 -89 45 -4 -1
-20 -4 -35 -6z m69 -49 c2 -7 -11 -13 -32 -16 -38 -4 -57 8 -34 23 18 12 61 7
66 -7z"/>
<path d="M1320 1701 c0 -12 5 -21 10 -21 6 0 10 6 10 14 0 8 -4 18 -10 21 -5
3 -10 -3 -10 -14z"/>
<path d="M1712 1703 c-18 -32 -15 -51 4 -25 8 12 14 28 11 35 -2 7 -8 3 -15
-10z"/>
</g>
</svg>
